<svg xmlns="http://www.w3.org/2000/svg" viewBox="0 0 324 102" width="324" height="102" role="img" aria-label="Princess">
  
  <g transform="translate(-14.3 -1.7) scale(0.974)">
    <polygon points="50,12 37,33 28,50 50,50" fill="#E1B2A9"></polygon>
    <polygon points="50,12 50,50 72,50 63,33" fill="#B76E79"></polygon>
    <polygon points="50,50 28,50 37,67 50,88" fill="#B76E79"></polygon>
    <polygon points="50,50 50,88 63,67 72,50" fill="#84495A"></polygon>
    <polygon points="50,12 40,30 48,43 59,31" fill="#F2D6CB"></polygon>
    <g stroke="#5E3140" stroke-width=".8" stroke-opacity=".4" stroke-linecap="round">
      <line x1="50" y1="12" x2="50" y2="88"></line><line x1="28" y1="50" x2="72" y2="50"></line>
      <line x1="37" y1="33" x2="50" y2="50"></line><line x1="63" y1="33" x2="50" y2="50"></line>
      <line x1="37" y1="67" x2="50" y2="50"></line><line x1="63" y1="67" x2="50" y2="50"></line>
      <line x1="50" y1="12" x2="40" y2="30"></line><line x1="50" y1="12" x2="59" y2="31"></line>
      <line x1="40" y1="30" x2="48" y2="43"></line><line x1="59" y1="31" x2="48" y2="43"></line>
    </g>
    <polygon points="50,12 63,33 72,50 63,67 50,88 37,67 28,50 37,33" fill="none" stroke="#5E3140" stroke-width="1" stroke-opacity=".5" stroke-linejoin="round"></polygon>
  </g>
  <text x="78" y="78.25" font-family="&#39;Playfair Display&#39;, Georgia, &#39;Times New Roman&#39;, serif" font-size="58" font-weight="500" letter-spacing="1.16" fill="#34232E">Princess</text>
</svg>